<svg width="16" height="16" viewBox="0 0 16 16" fill="none" xmlns="http://www.w3.org/2000/svg">
<path fill-rule="evenodd" clip-rule="evenodd" d="M7.99984 14.6667C7.99984 14.6667 13.3332 10.6667 13.3332 6.66671C13.3332 5.25222 12.7713 3.89567 11.7711 2.89547C10.7709 1.89528 9.41432 1.33337 7.99984 1.33337C6.58535 1.33337 5.2288 1.89528 4.2286 2.89547C3.22841 3.89567 2.6665 5.25222 2.6665 6.66671C2.6665 10.6667 7.99984 14.6667 7.99984 14.6667ZM10.6665 6.66671C10.6665 8.13947 9.4726 9.33337 7.99984 9.33337C6.52708 9.33337 5.33317 8.13947 5.33317 6.66671C5.33317 5.19395 6.52708 4.00004 7.99984 4.00004C9.4726 4.00004 10.6665 5.19395 10.6665 6.66671Z" fill="#8162FF"/>
<path d="M7.99984 14.6667L7.69984 15.0667C7.87761 15.2 8.12206 15.2 8.29984 15.0667L7.99984 14.6667ZM11.7711 2.89547L12.1246 2.54192V2.54192L11.7711 2.89547ZM4.2286 2.89547L4.58215 3.24902L4.2286 2.89547ZM12.8332 6.66671C12.8332 8.46919 11.6146 10.3475 10.2928 11.8345C9.64363 12.5648 8.9929 13.1751 8.50392 13.6029C8.25978 13.8165 8.05686 13.9839 7.91581 14.0973C7.8453 14.1539 7.79032 14.197 7.75345 14.2256C7.73501 14.2399 7.72111 14.2505 7.71207 14.2574C7.70754 14.2609 7.70424 14.2634 7.70219 14.2649C7.70116 14.2657 7.70045 14.2662 7.70005 14.2665C7.69986 14.2667 7.69974 14.2668 7.6997 14.2668C7.69969 14.2668 7.69972 14.2668 7.69971 14.2668C7.69976 14.2668 7.69984 14.2667 7.99984 14.6667C8.29984 15.0667 8.29995 15.0666 8.30009 15.0665C8.30016 15.0665 8.30031 15.0664 8.30046 15.0662C8.30074 15.066 8.30111 15.0657 8.30156 15.0654C8.30246 15.0647 8.30368 15.0638 8.30522 15.0627C8.30829 15.0603 8.31264 15.057 8.31821 15.0528C8.32934 15.0443 8.34539 15.032 8.36602 15.016C8.40727 14.984 8.46687 14.9373 8.5422 14.8768C8.69281 14.7557 8.90656 14.5794 9.16242 14.3555C9.67344 13.9084 10.356 13.2686 11.0402 12.4989C12.3851 10.9859 13.8332 8.86422 13.8332 6.66671H12.8332ZM11.4175 3.24902C12.3239 4.15545 12.8332 5.38483 12.8332 6.66671H13.8332C13.8332 5.11961 13.2186 3.63588 12.1246 2.54192L11.4175 3.24902ZM7.99984 1.83337C9.28172 1.83337 10.5111 2.3426 11.4175 3.24902L12.1246 2.54192C11.0307 1.44796 9.54693 0.833374 7.99984 0.833374V1.83337ZM4.58215 3.24902C5.48858 2.3426 6.71796 1.83337 7.99984 1.83337V0.833374C6.45274 0.833374 4.96901 1.44796 3.87505 2.54192L4.58215 3.24902ZM3.1665 6.66671C3.1665 5.38483 3.67573 4.15545 4.58215 3.24902L3.87505 2.54192C2.78109 3.63588 2.1665 5.11961 2.1665 6.66671H3.1665ZM7.99984 14.6667C8.29984 14.2667 8.29991 14.2668 8.29996 14.2668C8.29995 14.2668 8.29999 14.2668 8.29997 14.2668C8.29993 14.2668 8.29982 14.2667 8.29962 14.2665C8.29923 14.2662 8.29851 14.2657 8.29749 14.2649C8.29544 14.2634 8.29213 14.2609 8.28761 14.2574C8.27856 14.2505 8.26466 14.2399 8.24623 14.2256C8.20935 14.197 8.15437 14.1539 8.08387 14.0973C7.94281 13.9839 7.73989 13.8165 7.49576 13.6029C7.00677 13.1751 6.35605 12.5648 5.70688 11.8345C4.38507 10.3475 3.1665 8.46919 3.1665 6.66671H2.1665C2.1665 8.86422 3.6146 10.9859 4.95947 12.4989C5.64363 13.2686 6.32623 13.9084 6.83725 14.3555C7.09312 14.5794 7.30686 14.7557 7.45747 14.8768C7.5328 14.9373 7.5924 14.984 7.63366 15.016C7.65428 15.032 7.67033 15.0443 7.68147 15.0528C7.68704 15.057 7.69138 15.0603 7.69445 15.0627C7.69599 15.0638 7.69721 15.0647 7.69811 15.0654C7.69856 15.0657 7.69893 15.066 7.69922 15.0662C7.69936 15.0664 7.69952 15.0665 7.69959 15.0665C7.69972 15.0666 7.69984 15.0667 7.99984 14.6667ZM7.99984 9.83337C9.74874 9.83337 11.1665 8.41561 11.1665 6.66671H10.1665C10.1665 7.86332 9.19645 8.83337 7.99984 8.83337V9.83337ZM4.83317 6.66671C4.83317 8.41561 6.25094 9.83337 7.99984 9.83337V8.83337C6.80322 8.83337 5.83317 7.86332 5.83317 6.66671H4.83317ZM7.99984 3.50004C6.25094 3.50004 4.83317 4.91781 4.83317 6.66671H5.83317C5.83317 5.47009 6.80322 4.50004 7.99984 4.50004V3.50004ZM11.1665 6.66671C11.1665 4.91781 9.74874 3.50004 7.99984 3.50004V4.50004C9.19645 4.50004 10.1665 5.47009 10.1665 6.66671H11.1665Z" fill="#8162FF"/>
</svg>
